{"title":"Ghost.Machine.2009.BRRip.H264.Feel-Free","uid":5859664,"size":1605960776,"categoryP":"video","categoryS":"movies","magnet":"?xt=urn:btih:4751fafa62d88448fa7ff80a8bbb0bf51dfee76f&amp;dn=Ghost.Machine.2009.BRRip.H264.Feel-Free&amp;tr=udp%3A%2F%2Ftracker.openbittorrent.com%3A80&amp;tr=udp%3A%2F%2Fopen.demonii.com%3A1337&amp;tr=udp%3A%2F%2Ftracker.coppersurfer.tk%3A6969&amp;tr=udp%3A%2F%2Fexodus.desync.com%3A6969","seeders":0,"leechers":2,"uploader":".BONE.","files":8,"time":1285918500,"description":"Genre:Action | Sci-Fi\nLanguage:English\nIMDb:http://www.imdb.com/title/tt1286147/\nSource:BluRay.x264-LCHD\n\nGeneral\nComplete name :Ghost.Machine.2009.BRRip.H264.Feel-Free\nFormat : MPEG-4\nFormat profile : Base Media\nCodec ID : isom\nFile size : 1.49 GiB\nDuration : 1h 32mn\nOverall bit rate : 2 321 Kbps\nVideo #1\nCodec ID : avc1\nCodec ID/Info : Advanced Video Coding\nDuration : 1h 32mn\nBit rate mode : Variable\nBit rate : 2 000 Kbps\nWidth : 720 pixels\nHeight : 304 pixels\nDisplay aspect ratio : 2.35:1\nFrame rate mode : Constant\nFrame rate : 24.390 fps\nResolution : 24 bits\nColorimetry : 4:2:0\nScan type : Progressive\nBits/(Pixel*Frame) : 0.375\nStream size : 1.29 GiB (86%)\nAudio #2\nID : 2\nFormat : AAC\nFormat/Info : Advanced Audio Codec\nFormat version : Version 4\nFormat profile : LC\nFormat settings, SBR : No\nCodec ID : 40\nDuration : 1h 32mn\nBit rate mode : Variable\nBit rate : 320 Kbps\nChannel(s) : 6 channels\nChannel positions : Front: L C R, Rear: L R, LFE\nSampling rate : 48.0 KHz\nResolution : 16 bits\nStream size : 209 MiB (14%)\n\nPlot:\nTwo technicians battle a vengeful spirit that has infected their stolen military software.","torrent":{"xt":"urn:btih:4751fafa62d88448fa7ff80a8bbb0bf51dfee76f","amp;dn":"Ghost.Machine.2009.BRRip.H264.Feel-Free","amp;tr":["udp%3A%2F%2Ftracker.openbittorrent.com%3A80","udp%3A%2F%2Fopen.demonii.com%3A1337","udp%3A%2F%2Ftracker.coppersurfer.tk%3A6969","udp%3A%2F%2Fexodus.desync.com%3A6969"],"infoHash":"4751fafa62d88448fa7ff80a8bbb0bf51dfee76f","infoHashBuffer":{"type":"Buffer","data":[71,81,250,250,98,216,132,72,250,127,248,10,139,187,11,245,29,254,231,111]},"announce":[],"urlList":[]}}